<svg width="308" height="78" viewBox="0 0 308 78" fill="none" xmlns="http://www.w3.org/2000/svg">
<path d="M59.8182 37.6098C59.1224 35.5124 58.5076 33.4393 57.6641 31.371C57.3019 30.4749 56.9969 29.8259 56.9064 28.8717C56.7157 26.8518 57.6546 24.9724 57.7785 22.9429C57.931 20.5646 57.6736 18.1428 56.8015 15.9146C56.3393 14.7473 55.572 13.5751 54.6093 12.8049C50.6014 9.56932 43.9439 9.81635 39.9789 12.9938C38.5778 14.1224 38.0011 15.934 36.8479 17.2709C35.6231 18.6949 25.3818 18.6949 24.157 17.2709C23.0037 15.934 22.4271 14.1224 21.026 12.9938C17.061 9.81635 10.3986 9.56932 6.39074 12.8049C5.43285 13.5751 4.66559 14.7473 4.20809 15.9146C3.33121 18.1428 3.07387 20.5646 3.2216 22.9429C3.35504 24.9724 4.2891 26.8518 4.09848 28.8717C4.00793 29.8259 3.70293 30.4749 3.34074 31.371C2.49246 33.4393 1.88246 35.5173 1.18668 37.6098C-0.981677 44.1198 0.219261 52.514 4.56074 57.784C7.83473 61.7607 12.791 64.5071 17.6233 65.9554C21.7313 67.1906 26.1204 67.5103 30.3904 67.5103H30.6097C34.8797 67.5103 39.2688 67.1906 43.3768 65.9554C48.2043 64.5023 53.1654 61.7607 56.4393 57.784C60.7808 52.514 61.9818 44.1198 59.8182 37.6098Z" fill="#BDCF46"/>
<path d="M36.7048 26.4886C37.5816 26.4692 38.5443 27.1522 38.3155 28.4261C38.0534 29.8986 35.6706 29.7 35.4085 28.2711C35.1893 27.0747 35.9184 26.5031 36.7048 26.4886ZM24.0711 26.4886C24.867 26.5031 25.5913 27.0747 25.3673 28.2711C25.1052 29.7 22.7224 29.8986 22.4603 28.4261C22.2316 27.1522 23.1942 26.4741 24.0711 26.4886ZM9.01172 19.7316C9.01172 17.3969 10.5129 15.5078 12.3381 15.5078C14.1777 15.5078 15.6693 17.3969 15.6693 19.7316C15.6693 22.0614 14.1729 23.9553 12.3381 23.9553C10.5129 23.9553 9.01172 22.0614 9.01172 19.7316ZM48.4377 23.9553C46.603 23.9553 45.1066 22.0614 45.1066 19.7316C45.1066 17.3969 46.603 15.5078 48.4377 15.5078C50.2725 15.5078 51.7689 17.3969 51.7689 19.7316C51.7689 22.0614 50.2725 23.9553 48.4377 23.9553Z" fill="#2F2F2F"/>
<path d="M30.4619 42.2162C18.3239 42.2162 10.046 34.2531 11.2422 31.744C12.4336 29.2301 20.7686 34.5922 30.4572 34.5922C40.1219 34.5873 48.4617 29.2253 49.6483 31.744C50.8445 34.2579 42.5714 42.2162 30.4619 42.2162Z" fill="#ED6C30"/>
<g clip-path="url(#clip0_515_27)">
<path d="M129.905 54.5082C130.642 61.1578 127.515 66.9351 119.869 67.3656C109.492 67.8414 99.1156 67.8414 88.739 67.3656C81.0926 66.9351 77.9547 61.1578 78.7023 54.5082C79.2347 49.4672 79.7672 44.4261 80.1523 39.3738C80.6961 32.6562 83.8226 27.1847 90.5629 27.1961H118.068C124.808 27.1961 127.934 32.6675 128.478 39.3738C128.829 44.4261 129.373 49.4672 129.905 54.5082Z" fill="#8E6049"/>
<path d="M119.416 43.0441C119.382 40.2234 119.223 37.4141 119.019 35.307C118.827 33.2 118.577 31.784 118.577 31.784C118.555 31.6367 118.498 31.4895 118.43 31.3648V24.2395C118.43 16.4457 112.086 10.1133 104.293 10.1133C96.4989 10.1133 90.1551 16.457 90.1551 24.2395V31.3648C90.0872 31.5008 90.0418 31.6367 90.0079 31.784C90.0079 31.784 89.7586 33.1887 89.5661 35.307C89.3622 37.4141 89.1922 40.2348 89.1696 43.0441C89.1469 44.4488 89.1582 45.8648 89.1809 47.1789C89.2375 48.493 89.1922 49.7277 89.3848 50.7813C89.5661 51.8348 89.8946 52.7184 90.2231 53.3301C90.3704 53.6359 90.529 53.8852 90.6422 54.0438C90.7668 54.2137 90.8235 54.293 90.8235 54.293C90.8801 54.3609 90.9368 54.4289 91.0161 54.4856C91.4012 54.7688 91.945 54.6781 92.2282 54.293C92.2282 54.293 92.2961 54.2023 92.4094 54.0438C92.5227 53.8738 92.6813 53.6359 92.8286 53.3301C93.1571 52.7184 93.4856 51.8348 93.6668 50.7813C93.8707 49.7277 93.8254 48.493 93.8707 47.1789C93.8934 45.8648 93.9047 44.4488 93.8821 43.0441C93.8481 40.2234 93.6895 37.4141 93.4856 35.307C93.293 33.2 93.0438 31.784 93.0438 31.784C93.0211 31.6367 92.9645 31.4895 92.8965 31.3648V24.2395C92.8965 17.9637 98.0055 12.8547 104.281 12.8547C110.557 12.8547 115.666 17.9637 115.666 24.2395V31.3648C115.598 31.5008 115.553 31.6367 115.519 31.784C115.519 31.784 115.27 33.1887 115.077 35.307C114.873 37.4141 114.703 40.2348 114.681 43.0441C114.658 44.4488 114.669 45.8648 114.692 47.1789C114.748 48.493 114.703 49.7277 114.896 50.7813C115.077 51.8348 115.406 52.7184 115.734 53.3301C115.881 53.6359 116.04 53.8852 116.153 54.0438C116.278 54.2137 116.334 54.293 116.334 54.293C116.391 54.3609 116.448 54.4289 116.527 54.4856C116.912 54.7688 117.456 54.6781 117.739 54.293C117.739 54.293 117.807 54.2023 117.92 54.0438C118.034 53.8738 118.192 53.6359 118.34 53.3301C118.668 52.7184 118.997 51.8348 119.178 50.7813C119.382 49.7277 119.336 48.493 119.382 47.1789C119.427 45.8648 119.438 44.4602 119.416 43.0441Z" fill="#68442A"/>
<path d="M91.5372 37.2329C92.0127 37.2329 92.3981 36.8474 92.3981 36.3719C92.3981 35.8964 92.0127 35.511 91.5372 35.511C91.0617 35.511 90.6763 35.8964 90.6763 36.3719C90.6763 36.8474 91.0617 37.2329 91.5372 37.2329Z" fill="#422714"/>
<path d="M91.5372 41.4921C92.0127 41.4921 92.3981 41.1067 92.3981 40.6312C92.3981 40.1557 92.0127 39.7703 91.5372 39.7703C91.0617 39.7703 90.6763 40.1557 90.6763 40.6312C90.6763 41.1067 91.0617 41.4921 91.5372 41.4921Z" fill="#422714"/>
<path d="M117.048 37.2329C117.523 37.2329 117.909 36.8474 117.909 36.3719C117.909 35.8964 117.523 35.511 117.048 35.511C116.572 35.511 116.187 35.8964 116.187 36.3719C116.187 36.8474 116.572 37.2329 117.048 37.2329Z" fill="#422714"/>
<path d="M117.048 41.4921C117.523 41.4921 117.909 41.1067 117.909 40.6312C117.909 40.1557 117.523 39.7703 117.048 39.7703C116.572 39.7703 116.187 40.1557 116.187 40.6312C116.187 41.1067 116.572 41.4921 117.048 41.4921Z" fill="#422714"/>
<path d="M93.463 43.2367H89.6228C88.388 43.2367 87.3911 44.2336 87.3911 45.4683V47.0203C87.3911 48.2551 88.388 49.2519 89.6228 49.2519H93.463C94.6978 49.2519 95.6946 48.2551 95.6946 47.0203V45.4683C95.6946 44.2336 94.6864 43.2367 93.463 43.2367ZM94.5505 47.0203C94.5505 47.6207 94.0634 48.1078 93.463 48.1078H92.1149V46.9183C92.1149 46.6011 91.8544 46.3406 91.5372 46.3406C91.22 46.3406 90.9595 46.6011 90.9595 46.9183V48.1078H89.6114C89.011 48.1078 88.5239 47.6207 88.5239 47.0203V45.4683C88.5239 44.8679 89.011 44.3808 89.6114 44.3808H93.4517C94.052 44.3808 94.5392 44.8679 94.5392 45.4683V47.0203H94.5505ZM118.974 43.2367H115.134C113.899 43.2367 112.902 44.2336 112.902 45.4683V47.0203C112.902 48.2551 113.899 49.2519 115.134 49.2519H118.974C120.209 49.2519 121.206 48.2551 121.206 47.0203V45.4683C121.206 44.2336 120.209 43.2367 118.974 43.2367ZM120.061 47.0203C120.061 47.6207 119.574 48.1078 118.974 48.1078H117.626V46.9183C117.626 46.6011 117.365 46.3406 117.048 46.3406C116.731 46.3406 116.47 46.6011 116.47 46.9183V48.1078H115.122C114.522 48.1078 114.035 47.6207 114.035 47.0203V45.4683C114.035 44.8679 114.522 44.3808 115.122 44.3808H118.963C119.563 44.3808 120.05 44.8679 120.05 45.4683V47.0203H120.061Z" fill="#D1CFC3"/>
<path d="M135.298 54.5082C134.765 49.4672 134.233 44.4261 133.848 39.3738C133.304 32.6562 130.177 27.1847 123.437 27.1961H118.034C124.774 27.1961 127.9 32.6675 128.444 39.3738C128.818 44.4261 129.362 49.4672 129.894 54.5082C130.631 61.1578 127.504 66.9351 119.858 67.3656C115.575 67.5582 111.282 67.6715 106.989 67.7054C113.083 67.7508 119.167 67.6375 125.25 67.3656C132.908 66.9351 136.045 61.1578 135.298 54.5082Z" fill="#68442A"/>
<path d="M104.293 12.8547C102.967 12.8547 101.698 13.0812 100.52 13.5004C97.4844 16.0945 95.5586 19.9461 95.5586 24.2394V27.1961H98.3113V24.2394C98.3113 18.8926 102.016 14.3953 106.989 13.1832C106.128 12.9679 105.221 12.8547 104.293 12.8547ZM109.696 10.1019C108.767 10.1019 107.872 10.1926 107 10.3625C109.436 10.8383 111.656 11.9371 113.48 13.5004C117.909 15.0636 121.081 19.289 121.081 24.2394V27.1961H123.448C123.573 27.1961 123.709 27.1961 123.834 27.2074V24.2508C123.834 16.4457 117.49 10.1019 109.696 10.1019Z" fill="#422714"/>
</g>
<path d="M162.75 61.75V16.25C162.75 14.5261 163.435 12.8728 164.654 11.6538C165.873 10.4348 167.526 9.75 169.25 9.75H214.75C216.474 9.75 218.127 10.4348 219.346 11.6538C220.565 12.8728 221.25 14.5261 221.25 16.25V61.75C221.25 63.4739 220.565 65.1272 219.346 66.3462C218.127 67.5652 216.474 68.25 214.75 68.25H169.25C167.526 68.25 165.873 67.5652 164.654 66.3462C163.435 65.1272 162.75 63.4739 162.75 61.75ZM208.25 39L192 22.75V32.5H179V45.5H192V55.25L208.25 39Z" fill="#CC6565"/>
<path d="M301.913 32.3316C301.913 32.3316 307.655 17.645 304.665 12.335C303.658 10.5466 291.332 15.665 286.793 21.405C286.793 21.405 282.483 19.9716 278 19.9716C273.517 19.9716 269.207 21.405 269.207 21.405C264.668 15.665 252.342 10.5466 251.335 12.335C248.345 17.645 254.087 32.3316 254.087 32.3316C252.592 35.2016 252.032 39.5733 251.495 44.265C250.905 49.4083 252.078 53.5083 252.592 54.4133C253.175 55.4416 256.13 58.755 260.065 61.59C266.043 65.895 275.01 67.3316 278 67.3316C280.99 67.3316 289.957 65.8966 295.935 61.59C299.87 58.755 302.825 55.4416 303.408 54.4133C303.922 53.5083 305.095 49.4083 304.507 44.265C303.967 39.575 303.408 35.2016 301.913 32.3316Z" fill="#FFCC4D"/>
<path d="M251.932 13.9517C252.265 12.9534 260.845 17.5734 262.795 22.9584C262.795 22.9584 256.448 27.3317 255.248 30.6651C255.248 30.6651 250.265 18.9517 251.932 13.9517Z" fill="#F18F26"/>
<path d="M257.967 21.1017C257.967 18.745 267.062 25.6567 265.395 27.3234C263.728 28.99 263.303 28.5234 261.637 30.19C259.97 31.8567 257.967 22.7684 257.967 21.1017Z" fill="#FFCC4D"/>
<path d="M304.068 13.9517C303.735 12.9534 295.155 17.5734 293.205 22.9584C293.205 22.9584 299.552 27.3317 300.752 30.6651C300.752 30.6651 305.735 18.9517 304.068 13.9517Z" fill="#F18F26"/>
<path d="M298.033 21.1017C298.033 18.745 288.938 25.6567 290.605 27.3234C292.272 28.99 292.697 28.5234 294.363 30.19C296.03 31.8567 298.033 22.7684 298.033 21.1017Z" fill="#FFCC4D"/>
<path d="M271.335 42.335C271.349 42.7814 271.273 43.2261 271.112 43.6426C270.951 44.0592 270.708 44.4391 270.397 44.7598C270.086 45.0806 269.714 45.3356 269.303 45.5098C268.892 45.684 268.45 45.7737 268.003 45.7737C267.557 45.7737 267.115 45.684 266.703 45.5098C266.292 45.3356 265.92 45.0806 265.609 44.7598C265.298 44.4391 265.055 44.0592 264.894 43.6426C264.733 43.2261 264.657 42.7814 264.672 42.335C264.705 41.4739 265.07 40.6591 265.691 40.0616C266.312 39.464 267.14 39.1301 268.002 39.1299C268.863 39.1297 269.692 39.4632 270.313 40.0604C270.934 40.6577 271.3 41.4723 271.333 42.3333L271.335 42.335ZM291.332 42.335C291.346 42.7814 291.27 43.2261 291.109 43.6426C290.948 44.0592 290.705 44.4391 290.394 44.7598C290.083 45.0806 289.711 45.3356 289.3 45.5098C288.889 45.684 288.447 45.7737 288 45.7737C287.553 45.7737 287.111 45.684 286.7 45.5098C286.289 45.3356 285.917 45.0806 285.606 44.7598C285.295 44.4391 285.052 44.0592 284.891 43.6426C284.73 43.2261 284.654 42.7814 284.668 42.335C284.696 41.4696 285.059 40.6489 285.68 40.0464C286.302 39.4439 287.134 39.1071 288 39.1071C288.866 39.1071 289.698 39.4439 290.319 40.0464C290.941 40.6489 291.304 41.4696 291.332 42.335Z" fill="#292F33"/>
<path d="M251.668 59.7634C251.495 59.7632 251.327 59.7093 251.186 59.609C251.045 59.5087 250.939 59.367 250.882 59.2036C250.825 59.0402 250.82 58.8632 250.869 58.6971C250.917 58.531 251.016 58.3841 251.152 58.2767C251.422 58.065 257.852 53.0767 268.898 53.935C269.118 53.9521 269.323 54.0557 269.466 54.2232C269.61 54.3906 269.681 54.6083 269.665 54.8284C269.63 55.2867 269.237 55.6634 268.77 55.595C258.382 54.805 252.245 59.5384 252.185 59.5867C252.036 59.7001 251.855 59.7622 251.668 59.7634ZM266.448 51.9917C266.364 51.9918 266.28 51.9794 266.2 51.955C258.217 49.46 251.638 51.3767 251.572 51.395C251.467 51.4265 251.357 51.4371 251.248 51.4262C251.139 51.4152 251.034 51.3829 250.937 51.3312C250.841 51.2794 250.756 51.2091 250.687 51.1245C250.617 51.0398 250.566 50.9423 250.534 50.8375C250.503 50.7328 250.492 50.6229 250.503 50.5141C250.514 50.4053 250.546 50.2997 250.598 50.2033C250.65 50.107 250.72 50.0218 250.805 49.9526C250.889 49.8834 250.987 49.8315 251.092 49.8C251.38 49.7134 258.235 47.7217 266.695 50.3634C266.885 50.423 267.047 50.5484 267.152 50.7171C267.257 50.8858 267.299 51.0866 267.269 51.2832C267.239 51.4798 267.14 51.6593 266.99 51.7892C266.839 51.9191 266.647 51.9909 266.448 51.9917ZM304.332 59.7634C304.505 59.7632 304.673 59.7093 304.814 59.609C304.955 59.5087 305.061 59.367 305.118 59.2036C305.175 59.0402 305.179 58.8632 305.131 58.6971C305.083 58.531 304.984 58.3841 304.848 58.2767C304.578 58.065 298.148 53.0767 287.102 53.935C286.882 53.9521 286.677 54.0557 286.534 54.2232C286.39 54.3906 286.318 54.6083 286.335 54.8284C286.372 55.2867 286.763 55.6634 287.23 55.595C297.618 54.805 303.755 59.5384 303.815 59.5867C303.97 59.7034 304.152 59.7634 304.332 59.7634ZM289.552 51.9917C289.633 51.9917 289.718 51.98 289.8 51.955C297.783 49.46 304.362 51.3767 304.428 51.395C304.533 51.4265 304.643 51.4371 304.752 51.4262C304.861 51.4152 304.966 51.3829 305.062 51.3312C305.159 51.2794 305.244 51.2091 305.313 51.1245C305.382 51.0398 305.434 50.9423 305.466 50.8375C305.497 50.7328 305.508 50.6229 305.497 50.5141C305.486 50.4053 305.454 50.2997 305.402 50.2033C305.35 50.107 305.28 50.0218 305.195 49.9526C305.111 49.8834 305.013 49.8315 304.908 49.8C304.62 49.7134 297.765 47.7217 289.305 50.3634C289.115 50.423 288.953 50.5484 288.848 50.7171C288.743 50.8858 288.701 51.0866 288.731 51.2832C288.761 51.4798 288.86 51.6593 289.01 51.7892C289.161 51.9191 289.353 51.9909 289.552 51.9917Z" fill="#FEE7B8"/>
<path d="M289.227 60.4967C289.149 60.2896 288.993 60.1217 288.792 60.0298C288.591 59.9379 288.362 59.9296 288.155 60.0067C287.235 60.35 286.362 60.525 285.557 60.525C283.637 60.525 282.955 60.015 282.168 59.4267C281.417 58.8634 280.575 58.235 278.852 58.0884V54.19C278.852 53.969 278.764 53.757 278.608 53.6008C278.451 53.4445 278.239 53.3567 278.018 53.3567C277.797 53.3567 277.585 53.4445 277.429 53.6008C277.273 53.757 277.185 53.969 277.185 54.19V58.145C275.835 58.3367 274.942 58.8767 274.158 59.3834C273.212 59.995 272.393 60.525 270.687 60.525C269.883 60.525 269.01 60.3517 268.09 60.0067C267.885 59.9396 267.662 59.9543 267.468 60.0478C267.274 60.1413 267.123 60.3063 267.048 60.5083C266.972 60.7103 266.978 60.9336 267.064 61.1315C267.149 61.3294 267.308 61.4865 267.507 61.57C268.613 61.9817 269.683 62.1917 270.685 62.1917C272.883 62.1917 274.042 61.4434 275.063 60.7834C275.937 60.2184 276.697 59.7317 278.143 59.725C279.797 59.7384 280.407 60.1884 281.168 60.76C282.065 61.4317 283.08 62.1917 285.557 62.1917C286.558 62.1917 287.63 61.9817 288.737 61.57C288.839 61.5318 288.934 61.4737 289.014 61.3991C289.094 61.3245 289.159 61.2347 289.204 61.135C289.25 61.0353 289.275 60.9276 289.279 60.8181C289.283 60.7085 289.265 60.5993 289.227 60.4967Z" fill="#67757F"/>
<path d="M280.333 50.345H275.667C274.6 50.345 273.728 51.2166 273.728 52.2833C273.728 53.3483 274.6 54.2216 275.667 54.2216H276.062V54.7966C276.062 55.8616 276.933 56.735 278 56.735C279.067 56.735 279.938 55.8633 279.938 54.7966V54.2216H280.333C281.398 54.2216 282.272 53.35 282.272 52.2833C282.272 51.2166 281.398 50.345 280.333 50.345Z" fill="#E75A70"/>
<path d="M278.037 37.59C277.816 37.59 277.604 37.5022 277.447 37.346C277.291 37.1897 277.203 36.9777 277.203 36.7567V22.95C277.203 22.729 277.291 22.5171 277.447 22.3608C277.604 22.2045 277.816 22.1167 278.037 22.1167C278.258 22.1167 278.47 22.2045 278.626 22.3608C278.782 22.5171 278.87 22.729 278.87 22.95V36.7567C278.87 37.2184 278.498 37.59 278.037 37.59ZM283 34.9534C282.779 34.9534 282.567 34.8656 282.411 34.7093C282.254 34.553 282.167 34.341 282.167 34.12C282.167 29.3167 284.22 25.4367 284.308 25.2734C284.414 25.0811 284.592 24.9383 284.802 24.8761C285.012 24.8139 285.239 24.8372 285.432 24.941C285.626 25.0449 285.77 25.2208 285.835 25.4306C285.899 25.6405 285.878 25.8672 285.777 26.0617C285.757 26.0967 283.833 29.75 283.833 34.12C283.833 34.341 283.745 34.553 283.589 34.7093C283.433 34.8656 283.221 34.9534 283 34.9534ZM273 34.9534C272.779 34.9534 272.567 34.8656 272.411 34.7093C272.254 34.553 272.167 34.341 272.167 34.12C272.167 29.7484 270.242 26.0967 270.222 26.0617C270.133 25.8687 270.122 25.6494 270.19 25.4482C270.257 25.2471 270.399 25.0793 270.586 24.9789C270.773 24.8786 270.991 24.8531 271.196 24.9078C271.401 24.9625 271.578 25.0932 271.69 25.2734C271.778 25.4367 273.832 29.3167 273.832 34.12C273.832 34.2294 273.81 34.3377 273.769 34.4388C273.727 34.5399 273.666 34.6318 273.589 34.7092C273.511 34.7866 273.42 34.848 273.319 34.8899C273.218 34.9318 273.109 34.9534 273 34.9534Z" fill="#F18F26"/>
<defs>
<clipPath id="clip0_515_27">
<rect width="58" height="58" fill="white" transform="translate(78 10)"/>
</clipPath>
</defs>
</svg>
