<svg width="58" height="58" viewBox="0 0 58 58" fill="none" xmlns="http://www.w3.org/2000/svg">
<g clip-path="url(#clip0_515_15)">
<path d="M51.9055 44.5082C52.6418 51.1578 49.5152 56.9351 41.8687 57.3656C31.4922 57.8414 21.1156 57.8414 10.739 57.3656C3.09255 56.9351 -0.0453362 51.1578 0.70232 44.5082C1.23474 39.4672 1.76716 34.4261 2.15232 29.3738C2.69607 22.6562 5.82263 17.1847 12.5629 17.1961H40.0676C46.8078 17.1961 49.9344 22.6675 50.4781 29.3738C50.8293 34.4261 51.373 39.4672 51.9055 44.5082Z" fill="#8E6049"/>
<path d="M41.4157 33.0441C41.3817 30.2234 41.2231 27.4141 41.0192 25.307C40.8266 23.2 40.5774 21.784 40.5774 21.784C40.5547 21.6367 40.4981 21.4895 40.4301 21.3648V14.2395C40.4301 6.4457 34.0864 0.113281 26.2926 0.113281C18.4989 0.113281 12.1551 6.45703 12.1551 14.2395V21.3648C12.0872 21.5008 12.0418 21.6367 12.0079 21.784C12.0079 21.784 11.7586 23.1887 11.5661 25.307C11.3622 27.4141 11.1922 30.2348 11.1696 33.0441C11.1469 34.4488 11.1582 35.8648 11.1809 37.1789C11.2375 38.493 11.1922 39.7277 11.3848 40.7813C11.5661 41.8348 11.8946 42.7184 12.2231 43.3301C12.3704 43.6359 12.529 43.8852 12.6422 44.0438C12.7668 44.2137 12.8235 44.293 12.8235 44.293C12.8801 44.3609 12.9368 44.4289 13.0161 44.4856C13.4012 44.7688 13.945 44.6781 14.2282 44.293C14.2282 44.293 14.2961 44.2023 14.4094 44.0438C14.5227 43.8738 14.6813 43.6359 14.8286 43.3301C15.1571 42.7184 15.4856 41.8348 15.6668 40.7813C15.8707 39.7277 15.8254 38.493 15.8707 37.1789C15.8934 35.8648 15.9047 34.4488 15.8821 33.0441C15.8481 30.2234 15.6895 27.4141 15.4856 25.307C15.293 23.2 15.0438 21.784 15.0438 21.784C15.0211 21.6367 14.9645 21.4895 14.8965 21.3648V14.2395C14.8965 7.96367 20.0055 2.85469 26.2813 2.85469C32.5571 2.85469 37.6661 7.96367 37.6661 14.2395V21.3648C37.5981 21.5008 37.5528 21.6367 37.5188 21.784C37.5188 21.784 37.2696 23.1887 37.077 25.307C36.8731 27.4141 36.7032 30.2348 36.6805 33.0441C36.6579 34.4488 36.6692 35.8648 36.6918 37.1789C36.7485 38.493 36.7032 39.7277 36.8958 40.7813C37.077 41.8348 37.4055 42.7184 37.734 43.3301C37.8813 43.6359 38.0399 43.8852 38.1532 44.0438C38.2778 44.2137 38.3344 44.293 38.3344 44.293C38.3911 44.3609 38.4477 44.4289 38.527 44.4856C38.9122 44.7688 39.4559 44.6781 39.7391 44.293C39.7391 44.293 39.8071 44.2023 39.9204 44.0438C40.0336 43.8738 40.1922 43.6359 40.3395 43.3301C40.668 42.7184 40.9965 41.8348 41.1778 40.7813C41.3817 39.7277 41.3364 38.493 41.3817 37.1789C41.427 35.8648 41.4383 34.4602 41.4157 33.0441Z" fill="#68442A"/>
<path d="M13.5372 27.2329C14.0127 27.2329 14.3981 26.8474 14.3981 26.3719C14.3981 25.8964 14.0127 25.511 13.5372 25.511C13.0617 25.511 12.6763 25.8964 12.6763 26.3719C12.6763 26.8474 13.0617 27.2329 13.5372 27.2329Z" fill="#422714"/>
<path d="M13.5372 31.4921C14.0127 31.4921 14.3981 31.1067 14.3981 30.6312C14.3981 30.1557 14.0127 29.7703 13.5372 29.7703C13.0617 29.7703 12.6763 30.1557 12.6763 30.6312C12.6763 31.1067 13.0617 31.4921 13.5372 31.4921Z" fill="#422714"/>
<path d="M39.0479 27.2329C39.5234 27.2329 39.9089 26.8474 39.9089 26.3719C39.9089 25.8964 39.5234 25.511 39.0479 25.511C38.5725 25.511 38.187 25.8964 38.187 26.3719C38.187 26.8474 38.5725 27.2329 39.0479 27.2329Z" fill="#422714"/>
<path d="M39.0479 31.4921C39.5234 31.4921 39.9089 31.1067 39.9089 30.6312C39.9089 30.1557 39.5234 29.7703 39.0479 29.7703C38.5725 29.7703 38.187 30.1557 38.187 30.6312C38.187 31.1067 38.5725 31.4921 39.0479 31.4921Z" fill="#422714"/>
<path d="M15.463 33.2367H11.6228C10.388 33.2367 9.39111 34.2336 9.39111 35.4683V37.0203C9.39111 38.2551 10.388 39.2519 11.6228 39.2519H15.463C16.6978 39.2519 17.6946 38.2551 17.6946 37.0203V35.4683C17.6946 34.2336 16.6864 33.2367 15.463 33.2367ZM16.5505 37.0203C16.5505 37.6207 16.0634 38.1078 15.463 38.1078H14.1149V36.9183C14.1149 36.6011 13.8544 36.3406 13.5372 36.3406C13.22 36.3406 12.9595 36.6011 12.9595 36.9183V38.1078H11.6114C11.011 38.1078 10.5239 37.6207 10.5239 37.0203V35.4683C10.5239 34.8679 11.011 34.3808 11.6114 34.3808H15.4517C16.052 34.3808 16.5392 34.8679 16.5392 35.4683V37.0203H16.5505ZM40.9739 33.2367H37.1337C35.8989 33.2367 34.9021 34.2336 34.9021 35.4683V37.0203C34.9021 38.2551 35.8989 39.2519 37.1337 39.2519H40.9739C42.2087 39.2519 43.2056 38.2551 43.2056 37.0203V35.4683C43.2056 34.2336 42.2087 33.2367 40.9739 33.2367ZM42.0614 37.0203C42.0614 37.6207 41.5743 38.1078 40.9739 38.1078H39.6259V36.9183C39.6259 36.6011 39.3653 36.3406 39.0481 36.3406C38.731 36.3406 38.4704 36.6011 38.4704 36.9183V38.1078H37.1224C36.522 38.1078 36.0349 37.6207 36.0349 37.0203V35.4683C36.0349 34.8679 36.522 34.3808 37.1224 34.3808H40.9626C41.563 34.3808 42.0501 34.8679 42.0501 35.4683V37.0203H42.0614Z" fill="#D1CFC3"/>
<path d="M57.2978 44.5082C56.7653 39.4672 56.2329 34.4261 55.8478 29.3738C55.304 22.6562 52.1774 17.1847 45.4372 17.1961H40.0337C46.7739 17.1961 49.9005 22.6675 50.4442 29.3738C50.8181 34.4261 51.3618 39.4672 51.8942 44.5082C52.6306 51.1578 49.504 56.9351 41.8575 57.3656C37.5755 57.5582 33.2821 57.6715 28.9888 57.7054C35.0833 57.7508 41.1665 57.6375 47.2497 57.3656C54.9075 56.9351 58.0454 51.1578 57.2978 44.5082Z" fill="#68442A"/>
<path d="M26.2926 2.85466C24.9672 2.85466 23.6984 3.08123 22.5203 3.50037C19.4844 6.09451 17.5586 9.94607 17.5586 14.2394V17.1961H20.3113V14.2394C20.3113 8.89255 24.0156 4.39529 28.9887 3.18318C28.1277 2.96794 27.2215 2.85466 26.2926 2.85466ZM31.6961 0.101929C30.7672 0.101929 29.8723 0.192554 29 0.362476C31.4355 0.838257 33.6559 1.93708 35.4797 3.50037C39.909 5.06365 43.0809 9.28904 43.0809 14.2394V17.1961H45.4484C45.573 17.1961 45.709 17.1961 45.8336 17.2074V14.2508C45.8336 6.44568 39.4898 0.101929 31.6961 0.101929Z" fill="#422714"/>
</g>
<defs>
<clipPath id="clip0_515_15">
<rect width="58" height="58" fill="white"/>
</clipPath>
</defs>
</svg>
